<?xml version="1.0" encoding="us-ascii" standalone="no"?><svg xmlns="http://www.w3.org/2000/svg" xmlns:xlink="http://www.w3.org/1999/xlink" contentStyleType="text/css" height="225px" preserveAspectRatio="none" style="width:342px;height:225px;background:#FFFFFF;" version="1.1" viewBox="0 0 342 225" width="342px" zoomAndPan="magnify"><defs/><g><!--cluster App--><g id="cluster_App"><path d="M8.5,6.602 L37.5,6.602 A3.75,3.75 0 0 1 40,9.102 L47,31.6699 L175.5,31.6699 A2.5,2.5 0 0 1 178,34.1699 L178,216.102 A2.5,2.5 0 0 1 175.5,218.602 L8.5,218.602 A2.5,2.5 0 0 1 6,216.102 L6,9.102 A2.5,2.5 0 0 1 8.5,6.602 " fill="none" style="stroke:#000000;stroke-width:1.5;"/><line style="stroke:#000000;stroke-width:1.5;" x1="6" x2="47" y1="31.6699" y2="31.6699"/><text fill="#000000" font-family="sans-serif" font-size="14" font-weight="bold" lengthAdjust="spacing" textLength="28" x="10" y="23.5679">App</text></g><!--cluster External Services--><g id="cluster_External Services"><path d="M204.5,116.102 L322.5,116.102 A3.75,3.75 0 0 1 325,118.602 L332,141.1699 L332.5,141.1699 A2.5,2.5 0 0 1 335,143.6699 L335,215.602 A2.5,2.5 0 0 1 332.5,218.102 L204.5,218.102 A2.5,2.5 0 0 1 202,215.602 L202,118.602 A2.5,2.5 0 0 1 204.5,116.102 " fill="none" style="stroke:#000000;stroke-width:1.5;"/><line style="stroke:#000000;stroke-width:1.5;" x1="202" x2="332" y1="141.1699" y2="141.1699"/><text fill="#000000" font-family="sans-serif" font-size="14" font-weight="bold" lengthAdjust="spacing" textLength="117" x="206" y="133.0679">External Services</text></g><!--entity User Interface--><g id="elem_User Interface"><rect fill="#F1F1F1" height="49.0679" rx="2.5" ry="2.5" style="stroke:#181818;stroke-width:0.5;" width="136" x="24" y="44.602"/><rect fill="#F1F1F1" height="10" style="stroke:#181818;stroke-width:0.5;" width="15" x="140" y="49.602"/><rect fill="#F1F1F1" height="2" style="stroke:#181818;stroke-width:0.5;" width="4" x="138" y="51.602"/><rect fill="#F1F1F1" height="2" style="stroke:#181818;stroke-width:0.5;" width="4" x="138" y="55.602"/><text fill="#000000" font-family="sans-serif" font-size="14" lengthAdjust="spacing" textLength="96" x="39" y="79.5679">User Interface</text></g><!--entity Business Logic--><g id="elem_Business Logic"><rect fill="#F1F1F1" height="49.0679" rx="2.5" ry="2.5" style="stroke:#181818;stroke-width:0.5;" width="139" x="22.5" y="153.602"/><rect fill="#F1F1F1" height="10" style="stroke:#181818;stroke-width:0.5;" width="15" x="141.5" y="158.602"/><rect fill="#F1F1F1" height="2" style="stroke:#181818;stroke-width:0.5;" width="4" x="139.5" y="160.602"/><rect fill="#F1F1F1" height="2" style="stroke:#181818;stroke-width:0.5;" width="4" x="139.5" y="164.602"/><text fill="#000000" font-family="sans-serif" font-size="14" lengthAdjust="spacing" textLength="99" x="37.5" y="188.5679">Business Logic</text></g><!--entity Firebase--><g id="elem_Firebase"><path d="M218.5,164.102 C218.5,154.102 257,154.102 257,154.102 C257,154.102 295.5,154.102 295.5,164.102 L295.5,192.1699 C295.5,202.1699 257,202.1699 257,202.1699 C257,202.1699 218.5,202.1699 218.5,192.1699 L218.5,164.102 " fill="#F1F1F1" style="stroke:#181818;stroke-width:0.5;"/><path d="M218.5,164.102 C218.5,174.102 257,174.102 257,174.102 C257,174.102 295.5,174.102 295.5,164.102 " fill="none" style="stroke:#181818;stroke-width:0.5;"/><text fill="#000000" font-family="sans-serif" font-size="14" lengthAdjust="spacing" textLength="57" x="228.5" y="193.0679">Firebase</text></g><!--link User Interface to Business Logic--><g id="link_User Interface_Business Logic"><path d="M92,93.852 C92,111.582 92,129.702 92,147.422 " fill="none" id="User Interface-to-Business Logic" style="stroke:#181818;stroke-width:1.0;stroke-dasharray:7.0,7.0;"/><polygon fill="#181818" points="92,153.422,96,144.422,92,148.422,88,144.422,92,153.422" style="stroke:#181818;stroke-width:1.0;"/></g><!--link Business Logic to Firebase--><g id="link_Business Logic_Firebase"><path d="M161.61,178.102 C180.49,178.102 193.37,178.102 212.25,178.102 " fill="none" id="Business Logic-to-Firebase" style="stroke:#181818;stroke-width:1.0;stroke-dasharray:7.0,7.0;"/><polygon fill="#181818" points="218.25,178.102,209.25,174.102,213.25,178.102,209.25,182.102,218.25,178.102" style="stroke:#181818;stroke-width:1.0;"/></g><!--SRC=[AqXCpavCJrLGSYmeK5Aevb80WkZGujGY1S-yajIYjCJar5W5FJqxXMYdqkBClDJYOWMV_FJCv5YkMYwk0fXcrmgWshp478NWrAAopEJKOf1HOBDI4aiIanABWMhSCejIGImba4vqqnJqYZBJCqg0zi2KSG40]--></g></svg>