<?xml version="1.0" encoding="us-ascii" standalone="no"?><svg xmlns="http://www.w3.org/2000/svg" xmlns:xlink="http://www.w3.org/1999/xlink" contentStyleType="text/css" height="265px" preserveAspectRatio="none" style="width:342px;height:265px;background:#FFFFFF;" version="1.1" viewBox="0 0 342 265" width="342px" zoomAndPan="magnify"><defs/><g><text fill="#000000" font-family="sans-serif" font-size="14" font-weight="bold" lengthAdjust="spacing" textLength="139" x="94.5" y="24.9659">Logical Architecture</text><!--cluster App--><g id="cluster_App"><path d="M8.5,46.6699 L37.5,46.6699 A3.75,3.75 0 0 1 40,49.1699 L47,71.7378 L175.5,71.7378 A2.5,2.5 0 0 1 178,74.2378 L178,256.1699 A2.5,2.5 0 0 1 175.5,258.6699 L8.5,258.6699 A2.5,2.5 0 0 1 6,256.1699 L6,49.1699 A2.5,2.5 0 0 1 8.5,46.6699 " fill="none" style="stroke:#000000;stroke-width:1.5;"/><line style="stroke:#000000;stroke-width:1.5;" x1="6" x2="47" y1="71.7378" y2="71.7378"/><text fill="#000000" font-family="sans-serif" font-size="14" font-weight="bold" lengthAdjust="spacing" textLength="28" x="10" y="63.6358">App</text></g><!--cluster External Services--><g id="cluster_External Services"><path d="M204.5,155.6699 L322.5,155.6699 A3.75,3.75 0 0 1 325,158.1699 L332,180.7378 L332.5,180.7378 A2.5,2.5 0 0 1 335,183.2378 L335,256.1699 A2.5,2.5 0 0 1 332.5,258.6699 L204.5,258.6699 A2.5,2.5 0 0 1 202,256.1699 L202,158.1699 A2.5,2.5 0 0 1 204.5,155.6699 " fill="none" style="stroke:#000000;stroke-width:1.5;"/><line style="stroke:#000000;stroke-width:1.5;" x1="202" x2="332" y1="180.7378" y2="180.7378"/><text fill="#000000" font-family="sans-serif" font-size="14" font-weight="bold" lengthAdjust="spacing" textLength="117" x="206" y="172.6358">External Services</text></g><!--entity User Interface--><g id="elem_User Interface"><rect fill="#F1F1F1" height="49.0679" rx="2.5" ry="2.5" style="stroke:#181818;stroke-width:0.5;" width="136" x="24" y="84.6699"/><rect fill="#F1F1F1" height="10" style="stroke:#181818;stroke-width:0.5;" width="15" x="140" y="89.6699"/><rect fill="#F1F1F1" height="2" style="stroke:#181818;stroke-width:0.5;" width="4" x="138" y="91.6699"/><rect fill="#F1F1F1" height="2" style="stroke:#181818;stroke-width:0.5;" width="4" x="138" y="95.6699"/><text fill="#000000" font-family="sans-serif" font-size="14" lengthAdjust="spacing" textLength="96" x="39" y="119.6358">User Interface</text></g><!--entity Business Logic--><g id="elem_Business Logic"><rect fill="#F1F1F1" height="49.0679" rx="2.5" ry="2.5" style="stroke:#181818;stroke-width:0.5;" width="139" x="22.5" y="193.6699"/><rect fill="#F1F1F1" height="10" style="stroke:#181818;stroke-width:0.5;" width="15" x="141.5" y="198.6699"/><rect fill="#F1F1F1" height="2" style="stroke:#181818;stroke-width:0.5;" width="4" x="139.5" y="200.6699"/><rect fill="#F1F1F1" height="2" style="stroke:#181818;stroke-width:0.5;" width="4" x="139.5" y="204.6699"/><text fill="#000000" font-family="sans-serif" font-size="14" lengthAdjust="spacing" textLength="99" x="37.5" y="228.6358">Business Logic</text></g><!--entity Firebase--><g id="elem_Firebase"><rect fill="#F1F1F1" height="49.0679" rx="2.5" ry="2.5" style="stroke:#181818;stroke-width:0.5;" width="97" x="217.5" y="193.6699"/><rect fill="#F1F1F1" height="10" style="stroke:#181818;stroke-width:0.5;" width="15" x="294.5" y="198.6699"/><rect fill="#F1F1F1" height="2" style="stroke:#181818;stroke-width:0.5;" width="4" x="292.5" y="200.6699"/><rect fill="#F1F1F1" height="2" style="stroke:#181818;stroke-width:0.5;" width="4" x="292.5" y="204.6699"/><text fill="#000000" font-family="sans-serif" font-size="14" lengthAdjust="spacing" textLength="57" x="232.5" y="228.6358">Firebase</text></g><!--link User Interface to Business Logic--><g id="link_User Interface_Business Logic"><path d="M92,133.9199 C92,151.6499 92,169.7699 92,187.4899 " fill="none" id="User Interface-to-Business Logic" style="stroke:#181818;stroke-width:1.0;stroke-dasharray:7.0,7.0;"/><polygon fill="#181818" points="92,193.4899,96,184.4899,92,188.4899,88,184.4899,92,193.4899" style="stroke:#181818;stroke-width:1.0;"/></g><!--link Business Logic to Firebase--><g id="link_Business Logic_Firebase"><path d="M161.67,218.1699 C180.14,218.1699 192.62,218.1699 211.09,218.1699 " fill="none" id="Business Logic-to-Firebase" style="stroke:#181818;stroke-width:1.0;stroke-dasharray:7.0,7.0;"/><polygon fill="#181818" points="217.09,218.1699,208.09,214.1699,212.09,218.1699,208.09,222.1699,217.09,218.1699" style="stroke:#181818;stroke-width:1.0;"/></g><!--SRC=[NSr12W8n30NGVKyHUe0UGHX1GN0dhePPr10xmR4jQMOGnBiR1mGns_p_lh9E1FvO4cESe1CSMGbr5lBErOYtcEpVrUhXwS2kFpSIE6GbkKQa0KBOGB-T6sTg3LPfSA-VykvXsMpwYMHXfFQXLWlBlPPCMS7lMUWIcwrQzP-389n6jQ5lpBq1]--></g></svg>