<?xml version="1.0" encoding="us-ascii" standalone="no"?><svg xmlns="http://www.w3.org/2000/svg" xmlns:xlink="http://www.w3.org/1999/xlink" contentStyleType="text/css" height="487px" preserveAspectRatio="none" style="width:548px;height:487px;background:#FFFFFF;" version="1.1" viewBox="0 0 548 487" width="548px" zoomAndPan="magnify"><defs/><g><text fill="#000000" font-family="sans-serif" font-size="14" font-weight="bold" lengthAdjust="spacing" textLength="146" x="194" y="24.9659">Physical Architecture</text><!--cluster Personal Device--><g id="cluster_Personal Device"><polygon fill="none" points="99,56.0679,109,46.0679,325,46.0679,325,160.0679,315,170.0679,99,170.0679,99,56.0679" style="stroke:#181818;stroke-width:1.0;"/><line style="stroke:#181818;stroke-width:1.0;" x1="315" x2="325" y1="56.0679" y2="46.0679"/><line style="stroke:#181818;stroke-width:1.0;" x1="99" x2="315" y1="56.0679" y2="56.0679"/><line style="stroke:#181818;stroke-width:1.0;" x1="315" x2="315" y1="56.0679" y2="170.0679"/><text fill="#000000" font-family="sans-serif" font-size="14" font-weight="bold" lengthAdjust="spacing" textLength="109" x="153.5" y="74.0339">Personal Device</text></g><!--cluster Firebase--><g id="cluster_Firebase"><polygon fill="none" points="16,247.0679,26,237.0679,531,237.0679,531,460.0679,521,470.0679,16,470.0679,16,247.0679" style="stroke:#181818;stroke-width:1.0;"/><line style="stroke:#181818;stroke-width:1.0;" x1="521" x2="531" y1="247.0679" y2="237.0679"/><line style="stroke:#181818;stroke-width:1.0;" x1="16" x2="521" y1="247.0679" y2="247.0679"/><line style="stroke:#181818;stroke-width:1.0;" x1="521" x2="521" y1="247.0679" y2="470.0679"/><text fill="#000000" font-family="sans-serif" font-size="14" font-weight="bold" lengthAdjust="spacing" textLength="58" x="240.5" y="265.0339">Firebase</text></g><!--entity ItemSwap(Flutter)--><g id="elem_ItemSwap(Flutter)"><rect fill="#F1F1F1" height="49.0679" rx="2.5" ry="2.5" style="stroke:#181818;stroke-width:0.5;" width="159" x="142.5" y="97.0679"/><rect fill="#F1F1F1" height="10" style="stroke:#181818;stroke-width:0.5;" width="15" x="281.5" y="102.0679"/><rect fill="#F1F1F1" height="2" style="stroke:#181818;stroke-width:0.5;" width="4" x="279.5" y="104.0679"/><rect fill="#F1F1F1" height="2" style="stroke:#181818;stroke-width:0.5;" width="4" x="279.5" y="108.0679"/><text fill="#000000" font-family="sans-serif" font-size="14" lengthAdjust="spacing" textLength="119" x="157.5" y="132.0339">ItemSwap(Flutter)</text></g><!--entity Authentication--><g id="elem_Authentication"><rect fill="#F1F1F1" height="49.0679" rx="2.5" ry="2.5" style="stroke:#181818;stroke-width:0.5;" width="139" x="59.5" y="288.0679"/><rect fill="#F1F1F1" height="10" style="stroke:#181818;stroke-width:0.5;" width="15" x="178.5" y="293.0679"/><rect fill="#F1F1F1" height="2" style="stroke:#181818;stroke-width:0.5;" width="4" x="176.5" y="295.0679"/><rect fill="#F1F1F1" height="2" style="stroke:#181818;stroke-width:0.5;" width="4" x="176.5" y="299.0679"/><text fill="#000000" font-family="sans-serif" font-size="14" lengthAdjust="spacing" textLength="99" x="74.5" y="323.0339">Authentication</text></g><!--entity Firestore Database--><g id="elem_Firestore Database"><path d="M180,408.0679 C180,398.0679 253,398.0679 253,398.0679 C253,398.0679 326,398.0679 326,408.0679 L326,436.1358 C326,446.1358 253,446.1358 253,446.1358 C253,446.1358 180,446.1358 180,436.1358 L180,408.0679 " fill="#F1F1F1" style="stroke:#181818;stroke-width:0.5;"/><path d="M180,408.0679 C180,418.0679 253,418.0679 253,418.0679 C253,418.0679 326,418.0679 326,408.0679 " fill="none" style="stroke:#181818;stroke-width:0.5;"/><text fill="#000000" font-family="sans-serif" font-size="14" lengthAdjust="spacing" textLength="126" x="190" y="437.0339">Firestore Database</text></g><!--entity Realtime Database--><g id="elem_Realtime Database"><path d="M361,408.0679 C361,398.0679 434,398.0679 434,398.0679 C434,398.0679 507,398.0679 507,408.0679 L507,436.1358 C507,446.1358 434,446.1358 434,446.1358 C434,446.1358 361,446.1358 361,436.1358 L361,408.0679 " fill="#F1F1F1" style="stroke:#181818;stroke-width:0.5;"/><path d="M361,408.0679 C361,418.0679 434,418.0679 434,418.0679 C434,418.0679 507,418.0679 507,408.0679 " fill="none" style="stroke:#181818;stroke-width:0.5;"/><text fill="#000000" font-family="sans-serif" font-size="14" lengthAdjust="spacing" textLength="126" x="371" y="437.0339">Realtime Database</text></g><!--entity Messaging--><g id="elem_Messaging"><rect fill="#F1F1F1" height="49.0679" rx="2.5" ry="2.5" style="stroke:#181818;stroke-width:0.5;" width="114" x="234" y="288.0679"/><rect fill="#F1F1F1" height="10" style="stroke:#181818;stroke-width:0.5;" width="15" x="328" y="293.0679"/><rect fill="#F1F1F1" height="2" style="stroke:#181818;stroke-width:0.5;" width="4" x="326" y="295.0679"/><rect fill="#F1F1F1" height="2" style="stroke:#181818;stroke-width:0.5;" width="4" x="326" y="299.0679"/><text fill="#000000" font-family="sans-serif" font-size="14" lengthAdjust="spacing" textLength="74" x="249" y="323.0339">Messaging</text></g><!--entity Firebase API--><g id="elem_Firebase API"><rect fill="#F1F1F1" height="49.0679" rx="2.5" ry="2.5" style="stroke:#181818;stroke-width:0.5;" width="123" x="383.5" y="288.0679"/><rect fill="#F1F1F1" height="10" style="stroke:#181818;stroke-width:0.5;" width="15" x="486.5" y="293.0679"/><rect fill="#F1F1F1" height="2" style="stroke:#181818;stroke-width:0.5;" width="4" x="484.5" y="295.0679"/><rect fill="#F1F1F1" height="2" style="stroke:#181818;stroke-width:0.5;" width="4" x="484.5" y="299.0679"/><text fill="#000000" font-family="sans-serif" font-size="14" lengthAdjust="spacing" textLength="83" x="398.5" y="323.0339">Firebase API</text></g><!--link ItemSwap(Flutter) to Authentication--><g id="link_ItemSwap(Flutter)_Authentication"><path d="M210.41,146.1179 C192.54,182.4379 161.1088,246.3143 143.2388,282.6343 " fill="none" id="ItemSwap(Flutter)-to-Authentication" style="stroke:#181818;stroke-width:1.0;stroke-dasharray:7.0,7.0;"/><polygon fill="#181818" points="140.59,288.0179,148.1524,281.7083,142.7974,283.5315,140.9742,278.1766,140.59,288.0179" style="stroke:#181818;stroke-width:1.0;"/></g><!--link ItemSwap(Flutter) to Messaging--><g id="link_ItemSwap(Flutter)_Messaging"><path d="M230.6,146.1179 C243.86,182.4379 267.0823,246.0618 280.3423,282.3818 " fill="none" id="ItemSwap(Flutter)-to-Messaging" style="stroke:#181818;stroke-width:1.0;stroke-dasharray:7.0,7.0;"/><polygon fill="#181818" points="282.4,288.0179,283.0709,278.1919,280.6853,283.3211,275.5561,280.9355,282.4,288.0179" style="stroke:#181818;stroke-width:1.0;"/></g><!--link ItemSwap(Flutter) to Firebase API--><g id="link_ItemSwap(Flutter)_Firebase API"><path d="M262.16,146.1879 C292.2,164.7379 333.51,192.1979 366,221.0679 C389.07,241.5679 408.1528,263.9081 423.2828,283.0781 " fill="none" id="ItemSwap(Flutter)-to-Firebase API" style="stroke:#181818;stroke-width:1.0;stroke-dasharray:7.0,7.0;"/><polygon fill="#181818" points="427,287.7879,424.564,278.2451,423.9023,283.8631,418.2843,283.2014,427,287.7879" style="stroke:#181818;stroke-width:1.0;"/><text fill="#000000" font-family="sans-serif" font-size="13" lengthAdjust="spacing" textLength="103" x="356" y="208.9649">All Data Requests</text></g><!--link Firebase API to Firestore Database--><g id="link_Firebase API_Firestore Database"><path d="M402.86,337.1579 C370.63,355.2079 331.6552,377.0266 299.6152,394.9666 " fill="none" id="Firebase API-to-Firestore Database" style="stroke:#181818;stroke-width:1.0;stroke-dasharray:7.0,7.0;"/><polygon fill="#181818" points="294.38,397.8979,304.187,396.9911,298.7427,395.4551,300.2786,390.0108,294.38,397.8979" style="stroke:#181818;stroke-width:1.0;"/></g><!--link Firebase API to Realtime Database--><g id="link_Firebase API_Realtime Database"><path d="M442.59,337.1579 C440.74,355.2079 438.8222,373.9892 436.9822,391.9292 " fill="none" id="Firebase API-to-Realtime Database" style="stroke:#181818;stroke-width:1.0;stroke-dasharray:7.0,7.0;"/><polygon fill="#181818" points="436.37,397.8979,441.2674,389.353,436.8801,392.924,433.3091,388.5368,436.37,397.8979" style="stroke:#181818;stroke-width:1.0;"/></g><!--link Personal Device to Firebase--><g id="link_Personal Device_Firebase"><path d="M98.9345,132.2434 C98.7937,132.4176 98.6513,132.5939 98.5075,132.7723 C93.9056,138.4804 87.8125,146.2979 81.1975,155.4829 C67.9675,173.8529 52.65,197.6929 43,221.0679 C41.1013,225.6679 39.3838,230.4809 37.8314,235.3878 C37.7344,235.6945 37.6381,236.0015 37.5423,236.3089 C37.4945,236.4626 39.2182,230.8839 39.1707,231.0377 " fill="none" id="Personal Device-to-Firebase" style="stroke:#181818;stroke-width:1.0;"/><polygon fill="#181818" points="37.3992,236.7702,43.8781,229.3525,38.8754,231.9931,36.2347,226.9905,37.3992,236.7702" style="stroke:#181818;stroke-width:1.0;"/><text fill="#000000" font-family="sans-serif" font-size="13" lengthAdjust="spacing" textLength="34" x="72.87" y="119.6149">many</text><text fill="#000000" font-family="sans-serif" font-size="13" lengthAdjust="spacing" textLength="7" x="17.01" y="308.3149">1</text></g><!--SRC=[TP4n2y8m48Nt_8eZamuAhWv2GGeT1D6nECJsi84qqUIg5F6_crPRgwOPyxwNUtb7aXG2tnQravbG4Dcia8GPLHOvOzhaZOhM6UtLDLvbXXpk3Fn94y9oVnFdIQmg8hJJ0tjqdbXQF0hNmwqXggX0JNuIIQCFlP0B4WtyiZao5c7zlkC1QeT2aIn3KBf1vyH9wjFd-RGB0z4sQJC6eiDyllfFE0eEnemoNsDX2JnIgeqCExnK_f_EL_n3DSPW2o4kq0FxtnOlXQuvp6RUiU23rR0d]--></g></svg>