<?xml version="1.0" encoding="us-ascii" standalone="no"?><svg xmlns="http://www.w3.org/2000/svg" xmlns:xlink="http://www.w3.org/1999/xlink" contentStyleType="text/css" height="311px" preserveAspectRatio="none" style="width:751px;height:311px;background:#FFFFFF;" version="1.1" viewBox="0 0 751 311" width="751px" zoomAndPan="magnify"><defs/><g><!--cluster Personal Device--><g id="cluster_Personal Device"><polygon fill="none" points="158,16,168,6,384,6,384,120,374,130,158,130,158,16" style="stroke:#181818;stroke-width:1.0;"/><line style="stroke:#181818;stroke-width:1.0;" x1="374" x2="384" y1="16" y2="6"/><line style="stroke:#181818;stroke-width:1.0;" x1="158" x2="374" y1="16" y2="16"/><line style="stroke:#181818;stroke-width:1.0;" x1="374" x2="374" y1="16" y2="130"/><text fill="#000000" font-family="sans-serif" font-size="14" font-weight="bold" lengthAdjust="spacing" textLength="109" x="212.5" y="33.9659">Personal Device</text></g><!--cluster Firebase--><g id="cluster_Firebase"><polygon fill="none" points="16,180,26,170,734,170,734,284,724,294,16,294,16,180" style="stroke:#181818;stroke-width:1.0;"/><line style="stroke:#181818;stroke-width:1.0;" x1="724" x2="734" y1="180" y2="170"/><line style="stroke:#181818;stroke-width:1.0;" x1="16" x2="724" y1="180" y2="180"/><line style="stroke:#181818;stroke-width:1.0;" x1="724" x2="724" y1="180" y2="294"/><text fill="#000000" font-family="sans-serif" font-size="14" font-weight="bold" lengthAdjust="spacing" textLength="58" x="342" y="197.9659">Firebase</text></g><!--entity ItemSwap(Flutter)--><g id="elem_ItemSwap(Flutter)"><rect fill="#F1F1F1" height="49.0679" rx="2.5" ry="2.5" style="stroke:#181818;stroke-width:0.5;" width="159" x="201.5" y="57"/><rect fill="#F1F1F1" height="10" style="stroke:#181818;stroke-width:0.5;" width="15" x="340.5" y="62"/><rect fill="#F1F1F1" height="2" style="stroke:#181818;stroke-width:0.5;" width="4" x="338.5" y="64"/><rect fill="#F1F1F1" height="2" style="stroke:#181818;stroke-width:0.5;" width="4" x="338.5" y="68"/><text fill="#000000" font-family="sans-serif" font-size="14" lengthAdjust="spacing" textLength="119" x="216.5" y="91.9659">ItemSwap(Flutter)</text></g><!--entity Authentication--><g id="elem_Authentication"><rect fill="#F1F1F1" height="49.0679" rx="2.5" ry="2.5" style="stroke:#181818;stroke-width:0.5;" width="139" x="570.5" y="221"/><rect fill="#F1F1F1" height="10" style="stroke:#181818;stroke-width:0.5;" width="15" x="689.5" y="226"/><rect fill="#F1F1F1" height="2" style="stroke:#181818;stroke-width:0.5;" width="4" x="687.5" y="228"/><rect fill="#F1F1F1" height="2" style="stroke:#181818;stroke-width:0.5;" width="4" x="687.5" y="232"/><text fill="#000000" font-family="sans-serif" font-size="14" lengthAdjust="spacing" textLength="99" x="585.5" y="255.9659">Authentication</text></g><!--entity Firestore Database--><g id="elem_Firestore Database"><path d="M389,231.5 C389,221.5 462,221.5 462,221.5 C462,221.5 535,221.5 535,231.5 L535,259.5679 C535,269.5679 462,269.5679 462,269.5679 C462,269.5679 389,269.5679 389,259.5679 L389,231.5 " fill="#F1F1F1" style="stroke:#181818;stroke-width:0.5;"/><path d="M389,231.5 C389,241.5 462,241.5 462,241.5 C462,241.5 535,241.5 535,231.5 " fill="none" style="stroke:#181818;stroke-width:0.5;"/><text fill="#000000" font-family="sans-serif" font-size="14" lengthAdjust="spacing" textLength="126" x="399" y="260.4659">Firestore Database</text></g><!--entity Realtime Database--><g id="elem_Realtime Database"><path d="M208,231.5 C208,221.5 281,221.5 281,221.5 C281,221.5 354,221.5 354,231.5 L354,259.5679 C354,269.5679 281,269.5679 281,269.5679 C281,269.5679 208,269.5679 208,259.5679 L208,231.5 " fill="#F1F1F1" style="stroke:#181818;stroke-width:0.5;"/><path d="M208,231.5 C208,241.5 281,241.5 281,241.5 C281,241.5 354,241.5 354,231.5 " fill="none" style="stroke:#181818;stroke-width:0.5;"/><text fill="#000000" font-family="sans-serif" font-size="14" lengthAdjust="spacing" textLength="126" x="218" y="260.4659">Realtime Database</text></g><!--entity Messaging--><g id="elem_Messaging"><rect fill="#F1F1F1" height="49.0679" rx="2.5" ry="2.5" style="stroke:#181818;stroke-width:0.5;" width="114" x="59" y="221"/><rect fill="#F1F1F1" height="10" style="stroke:#181818;stroke-width:0.5;" width="15" x="153" y="226"/><rect fill="#F1F1F1" height="2" style="stroke:#181818;stroke-width:0.5;" width="4" x="151" y="228"/><rect fill="#F1F1F1" height="2" style="stroke:#181818;stroke-width:0.5;" width="4" x="151" y="232"/><text fill="#000000" font-family="sans-serif" font-size="14" lengthAdjust="spacing" textLength="74" x="74" y="255.9659">Messaging</text></g><!--link ItemSwap(Flutter) to Authentication--><g id="link_ItemSwap(Flutter)_Authentication"><path d="M360.72,91.76 C417.42,101.05 493.74,119.19 553,154 C581.94,171 603.9029,195.5357 619.7029,216.1757 " fill="none" id="ItemSwap(Flutter)-to-Authentication" style="stroke:#181818;stroke-width:1.0;stroke-dasharray:7.0,7.0;"/><polygon fill="#181818" points="623.35,220.94,621.0556,211.3621,620.3108,216.9697,614.7031,216.2249,623.35,220.94" style="stroke:#181818;stroke-width:1.0;"/></g><!--link ItemSwap(Flutter) to Messaging--><g id="link_ItemSwap(Flutter)_Messaging"><path d="M247.99,106.11 C230.35,119.37 208.68,136.68 191,154 C169.57,174.99 151.6597,196.9501 137.1997,215.9001 " fill="none" id="ItemSwap(Flutter)-to-Messaging" style="stroke:#181818;stroke-width:1.0;stroke-dasharray:7.0,7.0;"/><polygon fill="#181818" points="133.56,220.67,142.1996,215.9416,136.5931,216.6951,135.8397,211.0886,133.56,220.67" style="stroke:#181818;stroke-width:1.0;"/></g><!--link ItemSwap(Flutter) to Firestore Database--><g id="link_ItemSwap(Flutter)_Firestore Database"><path d="M312.93,106.07 C330.75,119.59 353.09,137.17 372,154 C396.5,175.8 418.6226,198.2852 436.4126,217.0552 " fill="none" id="ItemSwap(Flutter)-to-Firestore Database" style="stroke:#181818;stroke-width:1.0;stroke-dasharray:7.0,7.0;"/><polygon fill="#181818" points="440.54,221.41,437.2521,212.1262,437.1005,217.781,431.4456,217.6294,440.54,221.41" style="stroke:#181818;stroke-width:1.0;"/></g><!--link ItemSwap(Flutter) to Realtime Database--><g id="link_ItemSwap(Flutter)_Realtime Database"><path d="M281,106.06 C281,136.95 281,184.8 281,215.44 " fill="none" id="ItemSwap(Flutter)-to-Realtime Database" style="stroke:#181818;stroke-width:1.0;stroke-dasharray:7.0,7.0;"/><polygon fill="#181818" points="281,221.44,285,212.44,281,216.44,277,212.44,281,221.44" style="stroke:#181818;stroke-width:1.0;"/></g><!--link Personal Device to Firebase--><g id="link_Personal Device_Firebase"><path d="M157.7292,84.7307 C157.6229,84.7616 157.5157,84.7928 157.4077,84.8243 C157.1916,84.8873 156.9719,84.9517 156.7488,85.0173 C154.9637,85.5427 152.9554,86.1528 150.7553,86.8502 C141.955,89.6397 130.0863,93.8256 117.16,99.5687 C91.3075,111.055 61.225,128.77 43,154 C40.0863,158.0338 37.5995,162.4177 35.4792,167.0078 C35.2141,167.5815 34.9548,168.1585 34.7011,168.7384 C34.5742,169.0284 36.7992,163.7986 36.6752,164.09 " fill="none" id="Personal Device-to-Firebase" style="stroke:#181818;stroke-width:1.0;"/><polygon fill="#181818" points="34.3247,169.6105,41.5307,162.8968,36.2834,165.0101,34.1701,159.7628,34.3247,169.6105" style="stroke:#181818;stroke-width:1.0;"/><text fill="#000000" font-family="sans-serif" font-size="13" lengthAdjust="spacing" textLength="34" x="131.94" y="79.407">many</text><text fill="#000000" font-family="sans-serif" font-size="13" lengthAdjust="spacing" textLength="7" x="16.99" y="241.227">1</text></g><!--SRC=[TP312i8m38RlVOhGanusy0K4OGmy2AB7iKFSmYnigRIP8kAxEwkCmReSa-yF7p_Rca0VoNdBs496TrEHXfU2OOgzK7T-u6sLjxq8kNMftafnoEJ6qGNz28V0hfShiPWAnLWknqEDWb_u5_DY7K7st-a8TI9inNGng3YGzzWORe9Cn17IT3jNMGGd_vQOgFKY795NyufrX_pKa2H3OgCdVQeF]--></g></svg>